<svg xmlns="http://www.w3.org/2000/svg">
  <symbol id="site-icon-house-badge" viewBox="0 0 64 64">
    <defs>
      <linearGradient id="minimal-site-house-bg" x1="12" y1="10" x2="52" y2="54" gradientUnits="userSpaceOnUse">
        <stop stop-color="#0F172A"/>
        <stop offset="1" stop-color="#1E293B"/>
      </linearGradient>
      <linearGradient id="minimal-site-house-line" x1="18" y1="18" x2="46" y2="44" gradientUnits="userSpaceOnUse">
        <stop stop-color="#38BDF8"/>
        <stop offset="0.6" stop-color="#6366F1"/>
        <stop offset="1" stop-color="#A78BFA"/>
      </linearGradient>
    </defs>
    <rect x="8" y="8" width="48" height="48" rx="16" fill="url(#minimal-site-house-bg)"/>
    <path d="M18 31.5L32 20L46 31.5" stroke="url(#minimal-site-house-line)" stroke-width="4.5" stroke-linecap="round" stroke-linejoin="round"/>
    <path d="M22 30.5C22 29.672 22.672 29 23.5 29H40.5C41.328 29 42 29.672 42 30.5V44C42 44.828 41.328 45.5 40.5 45.5H23.5C22.672 45.5 22 44.828 22 44V30.5Z" stroke="#E2E8F0" stroke-width="4"/>
    <path d="M29 45.5V37.5C29 36.672 29.672 36 30.5 36H33.5C34.328 36 35 36.672 35 37.5V45.5" stroke="#E2E8F0" stroke-width="4" stroke-linecap="round" stroke-linejoin="round"/>
  </symbol>
  <symbol id="site-icon-house-mark" viewBox="0 0 64 64">
    <defs>
      <linearGradient id="minimal-site-house-mark-line" x1="18" y1="18" x2="46" y2="44" gradientUnits="userSpaceOnUse">
        <stop stop-color="#38BDF8"/>
        <stop offset="0.6" stop-color="#6366F1"/>
        <stop offset="1" stop-color="#A78BFA"/>
      </linearGradient>
    </defs>
    <path d="M18 31.5L32 20L46 31.5" stroke="url(#minimal-site-house-mark-line)" stroke-width="4.5" stroke-linecap="round" stroke-linejoin="round"/>
    <path d="M22 30.5C22 29.672 22.672 29 23.5 29H40.5C41.328 29 42 29.672 42 30.5V44C42 44.828 41.328 45.5 40.5 45.5H23.5C22.672 45.5 22 44.828 22 44V30.5Z" stroke="#E2E8F0" stroke-width="4"/>
    <path d="M29 45.5V37.5C29 36.672 29.672 36 30.5 36H33.5C34.328 36 35 36.672 35 37.5V45.5" stroke="#E2E8F0" stroke-width="4" stroke-linecap="round" stroke-linejoin="round"/>
  </symbol>
</svg>
